#N canvas 118 36 1482 1012 10;
#X declare -lib ofelia;
#X obj 22 160 ofHead;
#X obj 22 204 ofCountUntil;
#X obj 22 248 t b f;
#X obj 22 502 ofRectangle;
#X obj 22 480 ofTranslate;
#X obj 22 397 t b b;
#X obj 139 502 ofRectangle;
#X obj 139 397 t b b;
#X obj 139 480 ofTranslate;
#X obj 49 270 ofVal #i;
#X obj 22 353 ofSepMatrix 2, f 20;
#X obj 1345 64 declare -lib ofelia;
#X obj 166 419 ofExpr \; #i \; ofGetWidth \; 1 \;;
#X obj 49 419 ofExpr \; #i \; 1 \; ofGetHeight \;;
#X msg 20 38 bgColor black;
#X obj 139 375 ofSetColor white;
#X obj 22 375 ofSetColor white;
#X obj 26 103 ofWindow 1920 1080 LEFT TOP 1 127;
#X obj 22 182 ofExpr ofGetHeight;
#X obj 22 226 * 20;
#X obj 324 397 ofAnimate;
#X obj 324 370 ofAppend EXPO_INOUT;
#X obj 324 321 sel 0 1;
#X obj 327 241 ofCount 0 1 1;
#X obj 324 299 ofRcv @wipe;
#X text 411 246 toggle between 0 and 1;
#X obj 373 71 random 5;
#X obj 337 211 bng 15 250 50 0 empty empty empty 17 7 0 10 -262144
-1 -1;
#X obj 313 40 tgl 15 0 empty empty empty 17 7 0 10 -262144 -1 -1 0
1;
#X text 447 327 temps en ms;
#X text 373 325 taill en px;
#X obj 324 266 ofSnd @wipe;
#X msg 324 343 0 1000;
#X msg 400 341 1920 1000;
#X obj 22 331 ofCamera;
#X floatatom 42 312 5 0 0 0 - - -, f 5;
#X floatatom 77 313 5 0 0 0 - - -, f 5;
#X floatatom 111 313 5 0 0 0 - - -, f 5;
#X msg 22 294 lensOffset 0 0;
#X obj 1099 510 ofHead;
#X obj 1099 490 tgl 15 0 empty empty empty 17 7 0 10 -262144 -1 -1
0 1;
#X floatatom 1148 704 5 0 0 0 - - -, f 5;
#X floatatom 1197 704 5 0 0 0 - - -, f 5;
#X obj 1099 678 ofSetFillMode FILLED;
#X obj 1216 658 tgl 15 0 empty empty empty 17 7 0 10 -262144 -1 -1
0 1;
#X floatatom 1246 704 5 0 0 0 - - -, f 5;
#X obj 1099 532 ofSetDepthTest ON;
#X obj 1099 756 ofSetDepthTest OFF;
#X obj 1099 554 t b b;
#X obj 1099 634 ofTranslate;
#X obj 1099 724 ofDrawMesh3d @coloredCube;
#X obj 1099 656 ofRotateXYZ;
#X obj 1291 441 ofLoadMesh3d \; @coloredCube \; box 120 120 120 1 1
1 \; color \; 0 0 255 255 \; 255 0 255 255 \; 0 255 255 255 \; 255
255 255 255 \; 255 0 255 255 \; 255 0 0 255 \; 255 255 255 255 \; 255
255 0 255 \; 0 0 0 255 \; 0 0 255 255 \; 0 255 0 255 \; 0 255 255 255
\; 255 0 0 255 \; 0 0 0 255 \; 255 255 0 255 \; 0 255 0 255 \; 0 0
0 255 \; 255 0 0 255 \; 0 0 255 255 \; 255 0 255 255 \; 0 255 255 255
\; 255 255 255 255 \; 0 255 0 255 \; 255 255 0 255 \;;
#X obj 1126 575 ofExpr \; ofGetWidth/2 \; ofGetHeight/2 \; ofGetFrameNum*0.50
\;;
#X obj 9 621 ofHead;
#X msg 35 684 all bang;
#X obj 9 643 ofSetColor white;
#X obj 678 597 ofHead;
#X msg 784 402 add lineTo \$1 \$2;
#X obj 784 380 route 1;
#X msg 703 429 clear;
#X obj 678 380 route 1 3;
#X msg 678 402 add moveTo \$1 \$2;
#X obj 678 886 ofDrawPolyline2d @lines;
#X obj 678 619 t b b;
#X obj 705 641 ofVal @numCommands;
#X obj 705 663 ofCountUntil;
#X obj 705 853 ofSnd @toLoader;
#X obj 678 515 ofRcv @toLoader;
#X obj 705 734 list split 1;
#X obj 705 831 ofPrepend fill;
#X obj 705 809 pack s f f f;
#X obj 705 685 t b f f;
#X msg 752 429 0;
#X obj 678 538 ofLoadPolyline2d @lines;
#X obj 678 560 ofVal @numCommands;
#X obj 678 478 ofSnd @toLoader;
#X obj 752 451 ofVal @numCommands;
#X obj 739 756 ofExpr \; random(-0.5 \, 0.5) + $i1 \; random(-0.5 \,
0.5) + $i2 \;;
#X obj 705 712 ofGetPolyline2dCommand @lines;
#X msg 990 825 orienLock HARD;
#X msg 996 908 orien 0;
#X msg 993 882 orienLock FREE;
#X msg 995 855 orienLock SOFT;
#X msg 149 813 add lineTo \$1 \$2;
#X obj 149 791 route 1;
#X msg 68 840 clear;
#X obj 43 791 route 1 3;
#X msg 43 813 add moveTo \$1 \$2;
#X obj 43 877 ofLoadPolyline2d @lines;
#X obj 217 887 ofHead;
#X obj 217 909 ofDrawPolyline2d @lines;
#X obj 264 838 ofOrienListener;
#X floatatom 264 859 5 0 0 0 - - -, f 5;
#X obj 1099 510 ofHead;
#X obj 34 548 tgl 15 0 empty empty empty 17 7 0 10 -262144 -1 -1 0
1;
#X obj 158 550 tgl 15 0 empty empty empty 17 7 0 10 -262144 -1 -1 0
1;
#X obj 194 639 metro 1000;
#X obj 110 656 ofPrepend all;
#X obj 195 705 ofPrepend all;
#X floatatom 195 686 5 0 0 0 - - -, f 5;
#X obj 195 662 counter 0 1;
#X obj 35 664 ofTranslate;
#X floatatom 67 550 5 0 0 0 - - -, f 5;
#X msg 120 635 940 540;
#X obj 120 615 loadbang;
#X obj 272 617 ofHead;
#X msg 298 680 all bang;
#X obj 272 639 ofSetColor white;
#X obj 297 544 tgl 15 0 empty empty empty 17 7 0 10 -262144 -1 -1 0
1;
#X obj 456 545 tgl 15 0 empty empty empty 17 7 0 10 -262144 -1 -1 0
1;
#X obj 457 635 metro 1000;
#X obj 373 652 ofPrepend all;
#X obj 476 700 ofPrepend all;
#X floatatom 458 682 5 0 0 0 - - -, f 5;
#X obj 458 658 counter 0 1;
#X obj 298 660 ofTranslate;
#X floatatom 330 546 5 0 0 0 - - -, f 5;
#X msg 383 631 940 540;
#X obj 383 611 loadbang;
#X obj 0 702 clone clonedParticlecercle 100;
#X floatatom 367 547 5 0 0 0 - - -, f 5;
#X floatatom 105 550 5 0 0 0 - - -, f 5;
#X obj 298 701 clone clonedParticleRect 100;
#X obj 647 574 tgl 15 0 empty empty empty 17 7 0 10 -262144 -1 -1 0
1;
#X msg 105 269 995;
#X msg 137 270 640;
#X msg 169 269 1224;
#X obj 58 249 loadbang;
#X obj 22 141 tgl 15 0 empty empty empty 17 7 0 10 -262144 -1 -1 0
1;
#X obj 21 16 loadbang;
#X msg 195 66 bgColor white;
#X msg 103 66 bgColor black;
#X obj 277 -44 tgl 15 0 empty empty empty 17 7 0 10 -262144 -1 -1 0
1;
#X obj 137 20 gate 2;
#X obj 80 -39 vradio 15 1 0 2 empty empty empty 0 -8 0 10 -262144 -1
-1 0;
#X floatatom 120 1 5 0 0 0 - - -, f 5;
#X obj 279 -2 counter 1 2;
#X obj 279 -23 metro 500;
#X msg 173 248 346;
#X obj 237 235 gate 2;
#X obj 180 176 vradio 15 1 0 2 empty empty empty 0 -8 0 10 -262144
-1 -1 1;
#X floatatom 220 216 5 0 0 0 - - -, f 5;
#X obj 306 105 counter 1 2;
#X obj 307 70 metro 500;
#X text 762 52 Mise en place de la patch de visuel.;
#X text 730 77 Reste a placer des animation sur des recever OSC;
#X connect 0 0 18 0;
#X connect 1 0 19 0;
#X connect 2 0 34 0;
#X connect 2 1 9 0;
#X connect 4 0 3 0;
#X connect 5 0 4 0;
#X connect 5 1 13 0;
#X connect 7 0 8 0;
#X connect 7 1 12 0;
#X connect 8 0 6 0;
#X connect 10 0 16 0;
#X connect 10 1 15 0;
#X connect 12 0 8 2;
#X connect 12 1 6 1;
#X connect 12 2 6 2;
#X connect 13 0 4 1;
#X connect 13 1 3 1;
#X connect 13 2 3 2;
#X connect 14 0 17 0;
#X connect 15 0 7 0;
#X connect 16 0 5 0;
#X connect 18 0 1 0;
#X connect 19 0 2 0;
#X connect 21 0 20 0;
#X connect 22 0 32 0;
#X connect 22 1 33 0;
#X connect 23 0 31 0;
#X connect 24 0 22 0;
#X connect 27 0 23 0;
#X connect 28 0 144 0;
#X connect 32 0 21 0;
#X connect 33 0 21 0;
#X connect 34 0 10 0;
#X connect 35 0 34 1;
#X connect 36 0 34 2;
#X connect 37 0 34 3;
#X connect 38 0 34 0;
#X connect 39 0 46 0;
#X connect 40 0 39 0;
#X connect 41 0 50 1;
#X connect 42 0 50 2;
#X connect 43 0 50 0;
#X connect 44 0 43 1;
#X connect 45 0 50 3;
#X connect 46 0 48 0;
#X connect 48 0 49 0;
#X connect 48 1 53 0;
#X connect 49 0 51 0;
#X connect 50 0 47 0;
#X connect 51 0 43 0;
#X connect 53 0 49 1;
#X connect 53 1 49 2;
#X connect 53 2 51 1;
#X connect 53 2 51 2;
#X connect 53 2 51 3;
#X connect 54 0 56 0;
#X connect 55 0 120 0;
#X connect 56 0 102 0;
#X connect 57 0 64 0;
#X connect 58 0 76 0;
#X connect 59 0 58 0;
#X connect 60 0 76 0;
#X connect 61 0 62 0;
#X connect 61 1 60 0;
#X connect 61 1 73 0;
#X connect 62 0 76 0;
#X connect 64 0 63 0;
#X connect 64 1 65 0;
#X connect 65 0 66 0;
#X connect 66 0 72 0;
#X connect 68 0 74 0;
#X connect 69 0 71 0;
#X connect 69 1 78 0;
#X connect 70 0 67 0;
#X connect 71 0 70 0;
#X connect 72 0 79 0;
#X connect 72 1 79 0;
#X connect 72 2 71 3;
#X connect 73 0 77 0;
#X connect 74 0 75 0;
#X connect 78 0 71 1;
#X connect 78 1 71 2;
#X connect 79 0 69 0;
#X connect 84 0 89 0;
#X connect 85 0 84 0;
#X connect 86 0 89 0;
#X connect 87 0 88 0;
#X connect 87 1 86 0;
#X connect 88 0 89 0;
#X connect 90 0 91 0;
#X connect 92 0 93 0;
#X connect 95 0 54 0;
#X connect 96 0 97 0;
#X connect 97 0 101 0;
#X connect 98 0 120 1;
#X connect 99 0 120 2;
#X connect 100 0 99 0;
#X connect 101 0 100 0;
#X connect 102 0 55 0;
#X connect 103 0 102 1;
#X connect 104 0 98 0;
#X connect 105 0 104 0;
#X connect 106 0 108 0;
#X connect 107 0 123 0;
#X connect 108 0 116 0;
#X connect 109 0 106 0;
#X connect 110 0 111 0;
#X connect 111 0 115 0;
#X connect 112 0 123 1;
#X connect 113 0 123 2;
#X connect 114 0 113 0;
#X connect 115 0 114 0;
#X connect 116 0 107 0;
#X connect 117 0 116 1;
#X connect 118 0 112 0;
#X connect 119 0 118 0;
#X connect 121 0 116 2;
#X connect 122 0 102 2;
#X connect 124 0 57 0;
#X connect 125 0 35 0;
#X connect 126 0 36 0;
#X connect 127 0 37 0;
#X connect 128 0 125 0;
#X connect 128 0 126 0;
#X connect 128 0 127 0;
#X connect 129 0 0 0;
#X connect 130 0 14 0;
#X connect 131 0 17 0;
#X connect 132 0 17 0;
#X connect 133 0 138 0;
#X connect 134 0 132 0;
#X connect 134 1 131 0;
#X connect 135 0 136 0;
#X connect 136 0 134 0;
#X connect 137 0 135 0;
#X connect 137 0 134 1;
#X connect 138 0 137 0;
#X connect 139 0 37 0;
#X connect 140 0 139 0;
#X connect 140 1 127 0;
#X connect 141 0 142 0;
#X connect 142 0 140 0;
#X connect 143 0 141 0;
#X connect 143 0 140 1;
#X connect 144 0 143 0;
