#N canvas 235 49 1194 744 10;
#X declare -lib ofelia;
#X obj 27 227 ofHead;
#X obj 27 264 ofCountUntil;
#X obj 27 301 t b f;
#X obj 27 535 ofRectangle;
#X obj 27 517 ofTranslate;
#X obj 27 448 t b b;
#X obj 132 536 ofRectangle;
#X obj 132 448 t b b;
#X obj 132 518 ofTranslate;
#X obj 54 319 ofVal #i;
#X obj 27 374 ofSepMatrix 2, f 20;
#X obj 1450 24 declare -lib ofelia;
#X obj 159 467 ofExpr \; #i \; ofGetWidth \; 1 \;;
#X obj 54 466 ofExpr \; #i \; 1 \; ofGetHeight \;;
#X msg 11 116 bgColor black;
#X obj 27 245 ofExpr ofGetHeight;
#X obj 27 283 * 20;
#X obj 325 285 ofAnimate;
#X obj 325 266 ofAppend EXPO_INOUT;
#X obj 325 227 sel 0 1;
#X obj 325 208 ofCount 0 1 1;
#X text 417 207 toggle between 0 and 1;
#X obj 325 191 bng 15 250 50 0 empty empty empty 17 7 0 10 -262144
-1 -1;
#X text 468 226 temps en ms;
#X text 382 227 taill en px;
#X obj 27 355 ofCamera;
#X floatatom 122 337 5 0 0 0 - - -, f 5;
#X floatatom 157 337 5 0 0 0 - - -, f 5;
#X floatatom 191 338 5 0 0 0 - - -, f 5;
#X obj 1138 274 ofHead;
#X obj 1138 256 tgl 15 0 empty empty empty 17 7 0 10 -262144 -1 -1
1 1;
#X floatatom 1187 434 5 0 0 0 - - -, f 5;
#X floatatom 1236 434 5 0 0 0 - - -, f 5;
#X obj 1138 416 ofSetFillMode FILLED;
#X obj 1255 399 tgl 15 0 empty empty empty 17 7 0 10 -262144 -1 -1
0 1;
#X floatatom 1285 434 5 0 0 0 - - -, f 5;
#X obj 1138 310 t b b;
#X obj 1138 380 ofTranslate;
#X obj 1138 398 ofRotateXYZ;
#X obj 1165 329 ofExpr \; ofGetWidth/2 \; ofGetHeight/2 \; ofGetFrameNum*0.50
\;;
#X obj 14 692 ofHead;
#X msg 14 748 all bang;
#X obj 1138 274 ofHead;
#X obj 14 621 tgl 15 0 empty empty empty 17 7 0 10 -262144 -1 -1 1
1;
#X obj 102 749 ofPrepend all;
#X obj 191 749 ofPrepend all;
#X floatatom 191 732 5 0 0 0 - - -, f 5;
#X obj 209 714 counter 0 1;
#X obj 14 729 ofTranslate;
#X floatatom 103 696 5 0 0 0 - - -, f 5;
#X msg 102 731 940 540;
#X obj 102 713 loadbang;
#X obj 299 696 ofHead;
#X msg 299 750 all bang;
#X obj 299 625 tgl 15 0 empty empty empty 17 7 0 10 -262144 -1 -1 1
1;
#X obj 381 750 ofPrepend all;
#X obj 465 750 ofPrepend all;
#X floatatom 465 733 5 0 0 0 - - -, f 5;
#X obj 482 715 counter 0 1;
#X obj 299 732 ofTranslate;
#X floatatom 381 697 5 0 0 0 - - -, f 5;
#X msg 381 732 940 540;
#X obj 381 714 loadbang;
#X obj 14 767 clone clonedParticlecercle 100;
#X floatatom 415 697 5 0 0 0 - - -, f 5;
#X floatatom 137 696 5 0 0 0 - - -, f 5;
#X obj 299 768 clone clonedParticleRect 100;
#X msg 122 319 995;
#X msg 157 319 640;
#X msg 191 319 1224;
#X obj 122 300 loadbang;
#X obj 27 207 tgl 15 0 empty empty empty 17 7 0 10 -262144 -1 -1 1
1;
#X obj 11 98 loadbang;
#X msg 230 90 bgColor white;
#X msg 142 90 bgColor black;
#X obj 178 17 tgl 15 0 empty empty empty 17 7 0 10 -262144 -1 -1 0
1;
#X obj 142 71 gate 2;
#X floatatom 142 54 5 0 0 0 - - -, f 5;
#X obj 177 52 counter 1 2;
#X obj 178 34 metro 500;
#X floatatom 190 238 5 0 0 0 - - -, f 5;
#X text 761 46 Mise en place de la patch de visuel.;
#X text 729 71 Reste a placer des animation sur des recever OSC;
#X obj 1203 49 unpackOSC;
#X floatatom 1205 101 5 0 0 0 - - -, f 5;
#X floatatom 1264 100 5 0 0 0 - - -, f 5;
#X obj 14 710 ofSetColor;
#X obj 299 714 ofSetColor;
#X obj 142 108 s b;
#X obj 230 108 s w;
#X obj 14 638 r b;
#X obj 38 638 r w;
#X obj 299 642 r b;
#X obj 323 642 r w;
#X msg 14 674 set white;
#X msg 14 656 set black;
#X msg 299 678 set white;
#X msg 299 660 set black;
#X obj 27 430 ofSetColor;
#X obj 94 430 ofSetColor;
#X obj 27 393 r b;
#X obj 52 393 r w;
#X msg 27 411 set white;
#X msg 90 411 set black;
#X obj 1138 451 ofDrawMesh3d @coloredCube;
#X obj 822 249 ofHead;
#X obj 823 322 t b b;
#X obj 823 392 ofTranslate;
#X obj 823 412 ofRotateXYZ;
#X obj 822 249 ofHead;
#X obj 822 231 tgl 15 0 empty empty empty 17 7 0 10 -262144 -1 -1 1
1;
#X floatatom 838 282 5 0 255 0 - - -, f 5;
#X floatatom 878 282 5 0 255 0 - - -, f 5;
#X floatatom 918 282 5 0 255 0 - - -, f 5;
#X floatatom 958 282 5 0 255 0 - - -, f 5;
#X obj 823 303 ofSetColor 0xff0000;
#X obj 191 700 vradio 15 1 0 2 empty empty empty 0 -8 0 10 -262144
-1 -1 0;
#X obj 465 701 vradio 15 1 0 2 empty empty empty 0 -8 0 10 -262144
-1 -1 0;
#X obj 823 490 ofBox;
#X floatatom 325 303 5 0 0 0 - - -, f 5;
#X floatatom 781 459 5 0 0 0 - - -, f 5;
#X msg 874 471 resX \$1 \, resY \$1 \, resZ \$1;
#X floatatom 864 452 5 0 0 0 - - -, f 5;
#X obj 823 432 ofSetFillMode FILLED;
#X obj 940 415 tgl 15 0 empty empty empty 17 7 0 10 -262144 -1 -1 0
1;
#X obj 850 341 ofExpr \; ofGetWidth/2 \; ofGetHeight/2 \; ofGetFrameNum*0.2
\;;
#X floatatom 256 442 5 0 0 0 - - -, f 5;
#X floatatom 221 443 5 0 0 0 - - -, f 5;
#X floatatom 186 443 5 0 0 0 - - -, f 5;
#X msg 325 247 0 10000;
#X msg 372 247 1204 10000;
#X floatatom 403 679 5 0 0 0 - - -, f 5;
#X obj 391 622 s l;
#X obj 429 623 s h;
#X floatatom 391 603 5 0 0 0 - - -, f 5;
#X floatatom 429 604 5 0 0 0 - - -, f 5;
#X obj 155 663 s d;
#X floatatom 155 634 5 0 0 0 - - -, f 5;
#X msg 429 584 3000;
#X msg 466 671 -1200;
#X msg 1335 313 100;
#X msg 1337 339 10;
#X msg 1402 339 100;
#X floatatom 1357 270 5 0 0 0 - - -, f 5;
#X obj 1390 222 bng 15 250 50 0 empty empty empty 17 7 0 10 -262144
-1 -1;
#X msg 1337 365 500;
#X msg 1367 312 300;
#X msg 1369 338 600;
#X msg 1369 364 400;
#X msg 1400 313 250;
#X msg 1402 365 300;
#X obj 1356 288 gate 4;
#X obj 1390 241 counter 1 4;
#X floatatom 1286 249 5 0 0 0 - - -, f 5;
#X msg 1339 392 100;
#X msg 1372 391 100;
#X msg 1404 392 100;
#X obj 1518 162 ofLoadMesh3d \; @coloredCube \; box 120 120 120 1 1
1 \; color \; 0 0 255 255 \; 255 0 255 255 \; 0 255 255 255 \; 255
255 255 255 \; 255 0 255 255 \; 255 0 0 255 \; 255 255 255 255 \; 255
255 0 255 \; 0 0 0 255 \; 0 0 255 255 \; 0 255 0 255 \; 0 255 255 255
\; 255 0 0 255 \; 0 0 0 255 \; 255 255 0 255 \; 0 255 0 255 \; 0 0
0 255 \; 255 0 0 255 \; 0 0 255 255 \; 255 0 255 255 \; 0 255 255 255
\; 255 255 255 255 \; 0 255 0 255 \; 255 255 0 255 \;;
#X obj 1138 469 ofSetDepthTest OFF;
#X obj 1138 292 ofSetDepthTest ON;
#X obj 868 237 loadbang;
#X msg 868 258 255;
#X obj 525 649 loadbang;
#X msg 221 424 1;
#X obj 189 193 bng 15 250 50 0 empty empty empty 17 7 0 10 -262144
-1 -1;
#X msg 255 288 346;
#X msg 197 288 900;
#X msg 226 288 700;
#X msg 284 288 200;
#X obj 190 256 gate 5, f 16;
#X obj 189 218 counter 1 5;
#X msg 34 333 lensOffset 0 0;
#X obj 292 366 bng 15 250 50 0 empty empty empty 17 7 0 10 -262144
-1 -1;
#X msg 293 442 0;
#X msg 321 442 1;
#X obj 320 365 bng 15 250 50 0 empty empty empty 17 7 0 10 -262144
-1 -1;
#X msg 295 424 0;
#X msg 323 424 1;
#X obj 346 366 bng 15 250 50 0 empty empty empty 17 7 0 10 -262144
-1 -1;
#X floatatom 1321 99 5 0 0 0 - - -, f 5;
#X floatatom 1102 182 5 0 0 0 - - -, f 5;
#X obj 1105 137 / 255;
#X obj 1203 29 udpreceive 10.50.235.41 9663;
#X obj 1203 71 routeOSC /env1 /env2 /env3 /clickOSC /seq1 /seq2;
#X obj 1375 104 bng 15 250 50 0 empty empty empty 17 7 0 10 -262144
-1 -1;
#X obj 1424 107 bng 15 250 50 0 empty empty empty 17 7 0 10 -262144
-1 -1;
#X obj 1476 112 bng 15 250 50 0 empty empty empty 17 7 0 10 -262144
-1 -1;
#X floatatom 1211 197 5 0 0 0 - - -, f 5;
#X obj 1216 172 / 255;
#X obj 1260 169 + 2;
#X obj 442 378 delay 200;
#X floatatom 1316 198 5 0 0 0 - - -, f 5;
#X obj 1321 173 / 255;
#X obj 1365 170 + 4;
#X obj 1103 158 * 200;
#X obj 11 135 ofWindow 1920 1080 LEFT TOP 1 127;
#X connect 0 0 15 0;
#X connect 1 0 16 0;
#X connect 2 0 25 0;
#X connect 2 1 9 0;
#X connect 4 0 3 0;
#X connect 5 0 4 0;
#X connect 5 1 13 0;
#X connect 7 0 8 0;
#X connect 7 1 12 0;
#X connect 8 0 6 0;
#X connect 10 0 98 0;
#X connect 10 1 99 0;
#X connect 12 0 8 2;
#X connect 12 1 6 1;
#X connect 13 0 4 1;
#X connect 13 2 3 2;
#X connect 14 0 195 0;
#X connect 15 0 1 0;
#X connect 16 0 2 0;
#X connect 17 0 119 0;
#X connect 18 0 17 0;
#X connect 19 0 129 0;
#X connect 19 1 130 0;
#X connect 20 0 19 0;
#X connect 22 0 20 0;
#X connect 25 0 10 0;
#X connect 26 0 25 1;
#X connect 27 0 25 2;
#X connect 28 0 25 3;
#X connect 29 0 159 0;
#X connect 30 0 29 0;
#X connect 31 0 104 1;
#X connect 32 0 104 2;
#X connect 33 0 104 0;
#X connect 34 0 33 1;
#X connect 35 0 104 3;
#X connect 36 0 37 0;
#X connect 36 1 39 0;
#X connect 37 0 38 0;
#X connect 38 0 33 0;
#X connect 39 0 37 1;
#X connect 39 1 37 2;
#X connect 39 2 38 1;
#X connect 39 2 38 2;
#X connect 39 2 38 3;
#X connect 40 0 86 0;
#X connect 41 0 63 0;
#X connect 43 0 40 0;
#X connect 44 0 63 1;
#X connect 45 0 63 2;
#X connect 46 0 45 0;
#X connect 47 0 116 0;
#X connect 48 0 41 0;
#X connect 49 0 48 1;
#X connect 50 0 44 0;
#X connect 51 0 50 0;
#X connect 52 0 87 0;
#X connect 53 0 66 0;
#X connect 54 0 52 0;
#X connect 55 0 66 1;
#X connect 56 0 66 2;
#X connect 57 0 56 0;
#X connect 58 0 117 0;
#X connect 59 0 53 0;
#X connect 60 0 59 1;
#X connect 61 0 55 0;
#X connect 62 0 61 0;
#X connect 64 0 59 2;
#X connect 65 0 48 2;
#X connect 67 0 26 0;
#X connect 68 0 27 0;
#X connect 69 0 28 0;
#X connect 70 0 67 0;
#X connect 70 0 68 0;
#X connect 70 0 69 0;
#X connect 70 0 163 0;
#X connect 71 0 0 0;
#X connect 72 0 14 0;
#X connect 73 0 89 0;
#X connect 73 0 195 0;
#X connect 74 0 88 0;
#X connect 74 0 195 0;
#X connect 75 0 79 0;
#X connect 76 0 74 0;
#X connect 76 1 73 0;
#X connect 77 0 76 0;
#X connect 78 0 76 1;
#X connect 78 0 77 0;
#X connect 79 0 78 0;
#X connect 80 0 169 0;
#X connect 83 0 183 0;
#X connect 84 0 188 0;
#X connect 84 0 181 0;
#X connect 85 0 192 0;
#X connect 85 0 113 0;
#X connect 86 0 48 0;
#X connect 87 0 59 0;
#X connect 90 0 94 0;
#X connect 91 0 95 0;
#X connect 92 0 96 0;
#X connect 93 0 97 0;
#X connect 94 0 86 0;
#X connect 95 0 86 0;
#X connect 96 0 87 0;
#X connect 97 0 87 0;
#X connect 98 0 5 0;
#X connect 99 0 7 0;
#X connect 100 0 102 0;
#X connect 101 0 103 0;
#X connect 102 0 98 0;
#X connect 102 0 99 0;
#X connect 103 0 98 0;
#X connect 103 0 99 0;
#X connect 104 0 158 0;
#X connect 105 0 115 0;
#X connect 106 0 107 0;
#X connect 106 1 125 0;
#X connect 107 0 108 0;
#X connect 108 0 123 0;
#X connect 110 0 105 0;
#X connect 111 0 115 1;
#X connect 112 0 115 2;
#X connect 113 0 115 3;
#X connect 114 0 115 4;
#X connect 115 0 106 0;
#X connect 116 0 46 0;
#X connect 117 0 57 0;
#X connect 119 0 128 0;
#X connect 120 0 118 1;
#X connect 120 0 118 2;
#X connect 120 0 118 3;
#X connect 122 0 121 0;
#X connect 123 0 118 0;
#X connect 124 0 123 1;
#X connect 125 0 107 1;
#X connect 125 1 107 2;
#X connect 125 2 108 1;
#X connect 125 2 108 2;
#X connect 125 2 108 3;
#X connect 126 0 6 2;
#X connect 127 0 3 1;
#X connect 128 0 4 3;
#X connect 128 0 8 3;
#X connect 129 0 18 0;
#X connect 130 0 18 0;
#X connect 131 0 59 3;
#X connect 134 0 132 0;
#X connect 135 0 133 0;
#X connect 137 0 136 0;
#X connect 138 0 135 0;
#X connect 139 0 64 0;
#X connect 140 0 31 0;
#X connect 141 0 31 0;
#X connect 142 0 35 0;
#X connect 143 0 151 0;
#X connect 144 0 152 0;
#X connect 144 0 34 0;
#X connect 145 0 31 0;
#X connect 146 0 32 0;
#X connect 147 0 32 0;
#X connect 148 0 32 0;
#X connect 149 0 35 0;
#X connect 150 0 35 0;
#X connect 151 0 140 0;
#X connect 151 0 146 0;
#X connect 151 0 149 0;
#X connect 151 1 141 0;
#X connect 151 1 147 0;
#X connect 151 1 142 0;
#X connect 151 2 145 0;
#X connect 151 2 148 0;
#X connect 151 2 150 0;
#X connect 151 3 154 0;
#X connect 151 3 155 0;
#X connect 151 3 156 0;
#X connect 152 0 143 0;
#X connect 152 0 151 1;
#X connect 153 0 104 1;
#X connect 153 0 104 2;
#X connect 153 0 104 3;
#X connect 154 0 31 0;
#X connect 155 0 32 0;
#X connect 156 0 35 0;
#X connect 159 0 36 0;
#X connect 160 0 161 0;
#X connect 161 0 111 0;
#X connect 162 0 138 0;
#X connect 162 0 139 0;
#X connect 163 0 127 0;
#X connect 163 0 126 0;
#X connect 163 0 137 0;
#X connect 163 0 134 0;
#X connect 164 0 170 0;
#X connect 165 0 28 0;
#X connect 166 0 28 0;
#X connect 167 0 28 0;
#X connect 168 0 28 0;
#X connect 169 0 69 0;
#X connect 169 1 167 0;
#X connect 169 2 166 0;
#X connect 169 3 168 0;
#X connect 169 4 165 0;
#X connect 170 0 80 0;
#X connect 170 0 169 1;
#X connect 171 0 25 0;
#X connect 172 0 173 0;
#X connect 172 0 174 0;
#X connect 173 0 127 0;
#X connect 174 0 126 0;
#X connect 175 0 176 0;
#X connect 175 0 177 0;
#X connect 176 0 126 0;
#X connect 177 0 127 0;
#X connect 178 0 163 0;
#X connect 179 0 153 0;
#X connect 179 0 111 0;
#X connect 180 0 120 0;
#X connect 181 0 194 0;
#X connect 182 0 83 0;
#X connect 183 0 84 0;
#X connect 183 1 85 0;
#X connect 183 2 179 0;
#X connect 183 3 184 0;
#X connect 183 4 185 0;
#X connect 183 5 186 0;
#X connect 184 0 164 0;
#X connect 184 0 193 0;
#X connect 185 0 189 0;
#X connect 185 0 172 0;
#X connect 186 0 144 0;
#X connect 186 0 22 0;
#X connect 186 0 178 0;
#X connect 186 0 190 0;
#X connect 186 0 47 0;
#X connect 187 0 134 0;
#X connect 188 0 187 0;
#X connect 189 0 187 0;
#X connect 190 0 175 0;
#X connect 191 0 137 0;
#X connect 192 0 191 0;
#X connect 193 0 191 0;
#X connect 194 0 180 0;
